<svg xmlns="http://www.w3.org/2000/svg" viewBox="0 0 305.6 109.8"><path d="M74.8 64.6c0-9 4.2-17.1 10.7-22.5 5.4 5.9 13 9.3 21.1 9.3 1 0 2.1-.1 3.1-.2-.1-1.9-.3-3.8-.7-5.7-.8.1-1.6.1-2.4.1-6.2 0-12-2.4-16.3-6.8 4.1-2.1 8.7-3.4 13.6-3.4.8 0 1.6 0 2.4.1-.7-2-1.6-3.9-2.6-5.8-19.1.1-34.6 15.6-34.6 34.8V73c0 8.1 2.7 15.9 7.5 21.7.8 1 1.7 1.9 2.6 2.8-1.5.8-3 1.6-4.6 2.3-.1.1-.3.1-.4.2s-.3.1-.4.2c-.5-.6-1.1-1.2-1.6-1.8-5.7-6.9-8.8-15.9-8.8-25.4v-8.9c0-21.1 16.3-38.4 37-40-1.2-1.8-2.6-3.6-4-5.3-4.7.7-9.2 2.2-13.3 4.3.2-4.6 1.7-9 4.3-12.6-1.5-1.1-3.1-2.2-4.8-3.2-3.4 4.9-5.3 10.7-5.3 16.7 0 .9 0 1.7.1 2.5-.5.4-1 .7-1.5 1.1-2.5 2-7.7 6.5-11.1 13.1l-.2-.1c2.4-10.5 5.3-19.4 5.3-19.4-.1.5-.3.9-.4 1.3 1.9-6.3 4.2-12.4 6.9-18.3-1.7-.8-3.5-1.4-5.4-2-1.1 2.5-2.2 5.1-3.2 7.6C66.2 7 65.2 3.9 65 .7c-1.9-.4-3.8-.6-5.8-.8.2 6 2.3 11.8 6.2 16.4-1 3-1.9 6-2.7 9.1C57.1 18.1 53.6 9.3 52.5 0c-1.9.1-3.8.3-5.7.5 1.4 11.9 6.3 23 14.2 32.1-2.2 10.3-3.4 20.9-3.4 31.7v8.8c0 11.3 3.8 21.6 9.9 29.3-2 .5-4.1 1-6.2 1.2-2.8-3.9-4.9-8.2-6.5-12.9-1.6 4.6-3.7 9-6.5 12.9-2.1-.3-4.2-.7-6.2-1.2 6.1-7.6 9.9-17.9 9.9-29.3v-8.8c0-21.5-4.6-42.6-13.3-61.9-1.8.6-3.6 1.2-5.4 2 3.2 7.1 5.8 14.4 7.9 21.8 1.1 3.6 2.5 8.8 3.8 14.6l-.2.1c-3.7-7-9.2-11.7-11.5-13.5-.3-.2-.6-.5-.9-.7l-.1-.1c.1-.8.1-1.7.1-2.5 0-6.1-1.9-11.8-5.3-16.6-1.7 1-3.2 2-4.8 3.2 2.6 3.6 4.1 8 4.3 12.6-4.1-2.1-8.6-3.5-13.3-4.3-1.4 1.7-2.8 3.4-4 5.3 20.7 1.6 37 18.9 37 40v8.9c0 9.5-3.2 18.5-8.9 25.4-.5.6-1 1.2-1.6 1.8-.1-.1-.3-.1-.4-.2-.1-.1-.3-.1-.4-.2-1.6-.7-3.1-1.5-4.6-2.3.9-.8 1.8-1.7 2.6-2.7 4.9-5.9 7.5-13.6 7.5-21.7v-8.5C40.5 45.5 25 30 5.9 29.9c-1 1.9-1.8 3.8-2.6 5.8.8-.1 1.6-.1 2.4-.1 4.9 0 9.5 1.2 13.6 3.4C15 43.3 9.2 45.7 3 45.7c-.8 0-1.6 0-2.3-.1-.3 1.9-.5 3.8-.7 5.7 1 .1 2 .2 3 .2 8.1 0 15.7-3.4 21.1-9.3 6.5 5.3 10.7 13.4 10.7 22.5v8.5H3c7.5 21.4 27.9 36.7 51.8 36.7s44.3-15.3 51.8-36.7H74.8v-8.6zM145 41.5c2.8-3.1 6.2-4.6 10.1-4.6 2.1 0 3.8.4 5.2 1.2s2.4 2 3.2 3.6c3.3-3.2 6.9-4.8 11-4.8 3.4 0 5.9.9 7.7 2.7s2.7 4.2 2.7 7.3v24.3h-7.7V48.7c0-1.6-.4-2.9-1.2-3.8-.8-.9-2-1.4-3.7-1.4-2.9 0-5.4 1.5-7.3 4.5v23.1h-7.7V48.9c0-1.7-.4-3-1.2-3.9s-2-1.4-3.6-1.4c-1.4 0-2.8.5-4.1 1.4s-2.4 2.1-3.4 3.6v22.6h-7.7V37.5h7.7v4zM200.5 25c.9.9 1.4 2.1 1.4 3.4s-.5 2.4-1.4 3.4-2.1 1.4-3.4 1.4c-1.3 0-2.4-.5-3.3-1.4-.9-.9-1.4-2.1-1.4-3.4s.5-2.4 1.4-3.4c.9-.9 2-1.4 3.3-1.4 1.4 0 2.5.5 3.4 1.4zm.6 46.1h-7.7V37.5h7.7v33.6zm15.6-29.2c1.4-1.4 3.1-2.6 5.1-3.6s4.1-1.4 6.4-1.4c3.6 0 6.4 1 8.4 3.1 2 2 3 4.7 3 8.1v23.1h-7.7V49.9c0-2.1-.5-3.6-1.6-4.7s-2.6-1.6-4.6-1.6c-1.7 0-3.4.5-4.9 1.6-1.6 1.1-2.9 2.4-4.1 4.1v21.9H209V37.5h7.7v4.4zm41.2-4.4h7.5v6.1h-7.5v18.2c0 1.1.3 2 1 2.6.6.6 1.6.9 2.9.9 1 0 2.1-.1 3.2-.4l.2.1v6.1c-1.8.4-3.7.7-5.6.7-2.9 0-5.1-.8-6.8-2.4s-2.5-3.9-2.5-7V43.6H244v-6.1h6.3v-9.9h.6l7.1 2.5v7.4h-.1zm38.5 1.6c2.7 1.5 4.8 3.6 6.3 6.3 1.5 2.6 2.3 5.6 2.3 8.9s-.8 6.3-2.3 8.9c-1.5 2.6-3.6 4.7-6.3 6.3-2.7 1.5-5.8 2.3-9.2 2.3-3.5 0-6.5-.8-9.2-2.3s-4.8-3.6-6.3-6.3-2.3-5.6-2.3-8.9.8-6.3 2.3-8.9 3.6-4.7 6.3-6.3 5.8-2.3 9.2-2.3c3.4 0 6.5.8 9.2 2.3zm-16.5 7.4c-1.9 1.9-2.8 4.5-2.8 7.8s.9 5.9 2.8 7.8c1.9 1.9 4.3 2.9 7.3 2.9s5.4-1 7.3-2.9 2.8-4.5 2.8-7.8c0-3.4-.9-6-2.8-7.9s-4.3-2.8-7.3-2.8-5.4 1-7.3 2.9z" fill="#fff"/></svg>
