<?xml version="1.0" encoding="utf-8"?>
<!-- Generator: Adobe Illustrator 22.1.0, SVG Export Plug-In . SVG Version: 6.00 Build 0)  -->
<svg version="1.1" id="Layer_1" xmlns="http://www.w3.org/2000/svg" xmlns:xlink="http://www.w3.org/1999/xlink" x="0px" y="0px"
	 viewBox="0 0 341.7 109.8" style="enable-background:new 0 0 341.7 109.8;" xml:space="preserve">
<style type="text/css">
	.st0{fill:#FFFFFF;}
</style>
<path class="st0" d="M74.8,64.6c0-9,4.2-17.1,10.7-22.5c5.4,5.9,13,9.3,21.1,9.3c1,0,2.1-0.1,3.1-0.2c-0.1-1.9-0.3-3.8-0.7-5.7
	c-0.8,0.1-1.6,0.1-2.4,0.1c-6.2,0-12-2.4-16.3-6.8c4.1-2.1,8.7-3.4,13.6-3.4c0.8,0,1.6,0,2.4,0.1c-0.7-2-1.6-3.9-2.6-5.8
	c-19.1,0.1-34.6,15.6-34.6,34.8V73c0,8.1,2.7,15.9,7.5,21.7c0.8,1,1.7,1.9,2.6,2.8c-1.5,0.8-3,1.6-4.6,2.3c-0.1,0.1-0.3,0.1-0.4,0.2
	s-0.3,0.1-0.4,0.2c-0.5-0.6-1.1-1.2-1.6-1.8c-5.7-6.9-8.8-15.9-8.8-25.4v-8.9c0-21.1,16.3-38.4,37-40c-1.2-1.8-2.6-3.6-4-5.3
	c-4.7,0.7-9.2,2.2-13.3,4.3c0.2-4.6,1.7-9,4.3-12.6c-1.5-1.1-3.1-2.2-4.8-3.2C79.2,12.2,77.3,18,77.3,24c0,0.9,0,1.7,0.1,2.5
	c-0.5,0.4-1,0.7-1.5,1.1c-2.5,2-7.7,6.5-11.1,13.1l-0.2-0.1c2.4-10.5,5.3-19.4,5.3-19.4c-0.1,0.5-0.3,0.9-0.4,1.3
	c1.9-6.3,4.2-12.4,6.9-18.3c-1.7-0.8-3.5-1.4-5.4-2c-1.1,2.5-2.2,5.1-3.2,7.6C66.2,7,65.2,3.9,65,0.7c-1.9-0.4-3.8-0.6-5.8-0.8
	c0.2,6,2.3,11.8,6.2,16.4c-1,3-1.9,6-2.7,9.1C57.1,18.1,53.6,9.3,52.5,0c-1.9,0.1-3.8,0.3-5.7,0.5c1.4,11.9,6.3,23,14.2,32.1
	c-2.2,10.3-3.4,20.9-3.4,31.7v8.8c0,11.3,3.8,21.6,9.9,29.3c-2,0.5-4.1,1-6.2,1.2c-2.8-3.9-4.9-8.2-6.5-12.9
	c-1.6,4.6-3.7,9-6.5,12.9c-2.1-0.3-4.2-0.7-6.2-1.2c6.1-7.6,9.9-17.9,9.9-29.3v-8.8c0-21.5-4.6-42.6-13.3-61.9
	c-1.8,0.6-3.6,1.2-5.4,2c3.2,7.1,5.8,14.4,7.9,21.8c1.1,3.6,2.5,8.8,3.8,14.6l-0.2,0.1c-3.7-7-9.2-11.7-11.5-13.5
	c-0.3-0.2-0.6-0.5-0.9-0.7l-0.1-0.1c0.1-0.8,0.1-1.7,0.1-2.5c0-6.1-1.9-11.8-5.3-16.6c-1.7,1-3.2,2-4.8,3.2c2.6,3.6,4.1,8,4.3,12.6
	c-4.1-2.1-8.6-3.5-13.3-4.3c-1.4,1.7-2.8,3.4-4,5.3c20.7,1.6,37,18.9,37,40v8.9c0,9.5-3.2,18.5-8.9,25.4c-0.5,0.6-1,1.2-1.6,1.8
	c-0.1-0.1-0.3-0.1-0.4-0.2c-0.1-0.1-0.3-0.1-0.4-0.2c-1.6-0.7-3.1-1.5-4.6-2.3c0.9-0.8,1.8-1.7,2.6-2.7c4.9-5.9,7.5-13.6,7.5-21.7
	v-8.5C40.5,45.5,25,30,5.9,29.9c-1,1.9-1.8,3.8-2.6,5.8c0.8-0.1,1.6-0.1,2.4-0.1c4.9,0,9.5,1.2,13.6,3.4C15,43.3,9.2,45.7,3,45.7
	c-0.8,0-1.6,0-2.3-0.1c-0.3,1.9-0.5,3.8-0.7,5.7c1,0.1,2,0.2,3,0.2c8.1,0,15.7-3.4,21.1-9.3c6.5,5.3,10.7,13.4,10.7,22.5v8.5H3
	c7.5,21.4,27.9,36.7,51.8,36.7s44.3-15.3,51.8-36.7H74.8V64.6L74.8,64.6z"/>
<path class="st0" d="M143.7,42.1c2.8-3,6.1-4.6,9.9-4.6c2.1,0,3.8,0.4,5.1,1.2c1.3,0.8,2.4,2,3.2,3.5c3.2-3.1,6.8-4.7,10.8-4.7
	c3.3,0,5.8,0.9,7.6,2.6c1.7,1.8,2.6,4.1,2.6,7.1v23.9h-7.5v-22c0-1.6-0.4-2.8-1.2-3.7c-0.8-0.9-2-1.4-3.6-1.4
	c-2.9,0-5.3,1.5-7.2,4.4v22.6h-7.5V49.4c0-1.6-0.4-2.9-1.2-3.8c-0.8-0.9-1.9-1.4-3.5-1.4c-1.4,0-2.7,0.5-4,1.4
	c-1.3,0.9-2.4,2.1-3.3,3.5v22.2h-7.5v-33h7.5V42.1z"/>
<path class="st0" d="M192.1,69.2c-2-1.8-3-4.2-3-7.2c0-3,1-5.4,3.1-7.2c2.1-1.8,4.9-2.8,8.3-3.2l9.6-1v-1.8c0-1.7-0.6-3-1.7-3.9
	c-1.1-0.9-2.7-1.4-4.7-1.4c-1.7,0-3.1,0.4-4.2,1.3c-1.1,0.8-1.8,2.1-2.1,3.7l-6.5-0.3l-0.3-0.3c0.6-3.3,2.2-5.9,4.6-7.7
	c2.5-1.8,5.4-2.7,8.8-2.7c4,0,7.2,1,9.7,3c2.5,2,3.7,4.7,3.7,8.2v13.5c0,1.1,0.2,1.9,0.7,2.4c0.5,0.6,1.1,0.9,1.9,0.9
	c0.4,0,0.9-0.1,1.5-0.2l0.2,0.1V71c-1.3,0.4-2.7,0.7-4.2,0.7c-1.6,0-3-0.4-4.2-1.1c-1.2-0.7-2.1-2-2.7-3.7h-0.3
	c-3.1,3.4-6.7,5.1-10.8,5.1C196.6,71.9,194.1,71,192.1,69.2z M210.1,60.7v-4.8l-8.6,1c-1.7,0.2-3,0.8-3.9,1.6
	c-0.9,0.9-1.4,1.9-1.4,3.1c0,1.3,0.4,2.3,1.3,3c0.9,0.7,2,1.1,3.4,1.1C204.1,65.8,207.2,64.1,210.1,60.7z"/>
<path class="st0" d="M234.5,42.5c1.4-1.4,3-2.6,5-3.5c2-0.9,4.1-1.4,6.3-1.4c3.5,0,6.3,1,8.2,3c2,2,2.9,4.7,2.9,8v22.7h-7.5V50.5
	c0-2-0.5-3.6-1.6-4.7c-1-1.1-2.5-1.6-4.5-1.6c-1.7,0-3.3,0.5-4.9,1.6c-1.6,1-2.9,2.4-4,4v21.5H227v-33h7.5V42.5z"/>
<path class="st0" d="M275,38.2h7.4v5.9H275v17.9c0,1.1,0.3,1.9,1,2.5c0.6,0.6,1.6,0.9,2.8,0.9c1,0,2-0.1,3.1-0.4l0.2,0.1v6
	c-1.8,0.4-3.7,0.7-5.5,0.7c-2.8,0-5-0.8-6.7-2.3s-2.4-3.8-2.4-6.8V44.2h-6.1v-5.9h6.1v-9.7h0.6l7,2.4V38.2z"/>
<path class="st0" d="M295.5,71.2h-7.5V23.1h7.5V71.2z"/>
<path class="st0" d="M309,56.8c0.2,2.7,1.1,4.8,2.8,6.4c1.7,1.6,3.9,2.3,6.5,2.3c2.2,0,4.1-0.5,5.5-1.6c1.5-1,2.5-2.5,3.1-4.3
	l6.5,0.4l0.3,0.3c-1.1,3.7-3,6.5-5.6,8.5c-2.7,2-6,3-9.9,3c-3.3,0-6.1-0.7-8.6-2.1c-2.5-1.4-4.4-3.4-5.8-6c-1.4-2.6-2-5.6-2-9
	c0-3.3,0.8-6.3,2.3-8.9c1.5-2.6,3.5-4.6,6-6.1c2.5-1.5,5.2-2.2,8.2-2.2c3.1,0,5.9,0.7,8.3,2c2.4,1.3,4.3,3.3,5.7,5.8
	c1.4,2.6,2,5.6,2,9v2.3H309z M327.2,51.3c-0.2-2.4-1.2-4.2-2.8-5.6c-1.7-1.3-3.7-2-6.1-2c-2.3,0-4.3,0.7-5.9,2
	c-1.6,1.3-2.7,3.2-3.1,5.6H327.2z"/>
</svg>
